<svg width="24" height="16" viewBox="0 0 24 16" fill="none" xmlns="http://www.w3.org/2000/svg">
<path d="M7.64091 6.39497V9.22173H11.9713C11.851 10.3645 10.7082 12.5296 7.64091 12.5296C5.05474 12.5296 2.94971 10.3645 2.94971 7.71814C2.94971 5.07181 4.93445 2.90664 7.52063 2.90664C9.02422 2.90664 10.0467 3.50808 10.588 4.04937L12.693 2.06463C11.6142 1.04091 10.256 0.360143 8.79029 0.108451C7.32455 -0.143241 5.81708 0.0454499 4.45859 0.650653C3.1001 1.25586 1.95163 2.25038 1.15846 3.50841C0.365295 4.76645 -0.0369313 6.23146 0.00266623 7.71814C0.00266623 11.9282 3.43086 15.3564 7.64091 15.3564C12.0915 15.3564 14.9784 12.1688 14.9784 7.83842L14.8582 6.39497" fill="white"/>
<path fill-rule="evenodd" clip-rule="evenodd" d="M21.3236 8.28951V10.9659H19.5794V8.28951H16.903V6.54534H19.5794V3.86895H21.3236V6.54534H24V8.28951H21.3236Z" fill="white"/>
</svg>
