<svg width="120" height="120" viewBox="0 0 120 120" fill="none" xmlns="http://www.w3.org/2000/svg">
<path d="M0 59.9978C0 26.8626 26.8626 0 59.9978 0C93.1329 0 119.996 26.8626 119.996 59.9978C119.996 93.1329 93.1329 119.996 59.9978 119.996C26.8626 119.996 0 93.1329 0 59.9978ZM59.9978 8.18151C46.2552 8.18151 33.0756 13.6407 23.3581 23.3581C13.6407 33.0756 8.18151 46.2552 8.18151 59.9978C8.18151 73.7403 13.6407 86.92 23.3581 96.6374C33.0756 106.355 46.2552 111.814 59.9978 111.814C73.7403 111.814 86.92 106.355 96.6374 96.6374C106.355 86.92 111.814 73.7403 111.814 59.9978C111.814 46.2552 106.355 33.0756 96.6374 23.3581C86.92 13.6407 73.7403 8.18151 59.9978 8.18151Z" fill="white"/>
</svg>
