<svg width="31" height="31" viewBox="0 0 31 31" fill="none" xmlns="http://www.w3.org/2000/svg">
<path d="M15.375 0C11.2973 0 7.3866 1.61986 4.50323 4.50323C1.61986 7.3866 0 11.2973 0 15.375C0 19.4527 1.61986 23.3634 4.50323 26.2468C7.3866 29.1301 11.2973 30.75 15.375 30.75C19.4527 30.75 23.3634 29.1301 26.2468 26.2468C29.1301 23.3634 30.75 19.4527 30.75 15.375C30.75 11.2973 29.1301 7.3866 26.2468 4.50323C23.3634 1.61986 19.4527 0 15.375 0ZM23.91 16.26C23.7208 16.5089 23.4586 16.6924 23.16 16.785L20.745 17.595C20.007 17.8472 19.3354 18.2625 18.78 18.81C18.2283 19.3621 17.8124 20.0348 17.565 20.775L16.74 23.19C16.629 23.4623 16.4479 23.7004 16.215 23.88C15.966 24.0604 15.6675 24.1599 15.36 24.165C15.051 24.1695 14.7495 24.0691 14.505 23.88C14.2555 23.7009 14.0671 23.4496 13.965 23.16L13.17 20.745C12.9229 20.0022 12.5052 19.3276 11.9504 18.7754C11.3955 18.2231 10.719 17.8086 9.975 17.565L7.575 16.77C7.28539 16.6679 7.03407 16.4795 6.855 16.23C6.66802 15.9844 6.56778 15.6837 6.57 15.375C6.57202 15.0624 6.67166 14.7582 6.855 14.505C7.02727 14.2619 7.27515 14.0825 7.56 13.995L9.975 13.185C10.7215 12.9322 11.4028 12.5173 11.97 11.97C12.525 11.409 12.9405 10.725 13.185 9.975L13.995 7.605C14.0849 7.3212 14.2572 7.07056 14.49 6.885C14.7292 6.68298 15.0319 6.57148 15.345 6.57C15.6426 6.56489 15.935 6.64843 16.185 6.81C16.449 6.9741 16.6498 7.22251 16.755 7.515L17.565 9.96C17.817 10.7145 18.237 11.4015 18.795 11.97C19.3587 12.5142 20.0345 12.9289 20.775 13.185L23.19 14.025C23.477 14.1165 23.7251 14.3013 23.895 14.55C24.0701 14.8008 24.1643 15.0991 24.165 15.405C24.1635 15.708 24.075 16.005 23.91 16.26Z" fill="white"/>
</svg>
